<?xml version="1.0" standalone="no"?>
<!DOCTYPE svg PUBLIC "-//W3C//DTD SVG 20010904//EN"
 "http://www.w3.org/TR/2001/REC-SVG-20010904/DTD/svg10.dtd">
<svg version="1.0" xmlns="http://www.w3.org/2000/svg"
 width="920.000000pt" height="920.000000pt" viewBox="0 0 920.000000 920.000000"
 preserveAspectRatio="xMidYMid meet">
<metadata>
Created by potrace 1.11, written by Peter Selinger 2001-2013
</metadata>
<g transform="translate(0.000000,920.000000) scale(0.100000,-0.100000)"
fill="#000000" stroke="none">
<path d="M1398 9175 c-121 -17 -233 -46 -358 -92 -317 -118 -606 -355 -788
-648 -101 -163 -174 -351 -214 -548 l-23 -112 0 -3155 0 -3155 23 -112 c88
-434 326 -792 690 -1036 171 -115 404 -208 612 -244 100 -17 253 -18 3255 -18
3002 0 3155 1 3255 18 366 64 716 264 950 545 181 215 296 456 352 735 l23
112 0 3155 0 3155 -23 112 c-88 434 -326 792 -690 1036 -165 111 -390 202
-602 243 -91 18 -222 19 -3230 21 -2565 1 -3153 -1 -3232 -12z m3927 -1243
c203 -56 318 -97 450 -162 45 -22 84 -40 87 -40 4 0 34 -18 67 -40 33 -22 64
-40 68 -40 4 0 31 -18 58 -40 28 -22 56 -40 63 -40 6 0 12 -4 12 -10 0 -5 12
-16 28 -24 42 -22 272 -242 341 -326 34 -42 61 -85 61 -97 0 -16 -13 -31 -42
-49 -23 -15 -54 -37 -68 -50 -50 -46 -126 -108 -200 -162 -77 -57 -128 -98
-190 -152 -34 -31 -213 -169 -237 -183 -7 -4 -70 20 -145 56 -173 83 -367 149
-548 186 -368 75 -667 73 -1045 -9 -283 -60 -622 -214 -885 -400 -139 -99
-331 -280 -450 -424 l-65 -79 -3 134 c-3 144 5 211 45 359 27 104 72 239 83
255 4 6 17 35 28 65 11 30 34 83 51 117 17 34 31 65 31 68 0 7 111 180 147
228 87 116 120 154 241 276 147 148 141 143 337 275 175 118 415 230 593 277
267 72 234 68 617 66 l350 -2 120 -33z m-1109 -2262 c173 -83 741 -368 829
-416 44 -25 94 -51 110 -60 45 -22 114 -63 163 -95 24 -16 46 -29 50 -29 4 -1
39 -27 77 -58 93 -77 95 -93 18 -159 -79 -68 -203 -144 -448 -273 -55 -29
-112 -61 -127 -71 -14 -11 -32 -19 -40 -19 -8 0 -40 -16 -72 -35 -32 -19 -62
-35 -66 -35 -5 0 -75 -33 -157 -74 -280 -141 -465 -226 -490 -226 -8 0 -29 7
-47 15 l-31 15 112 338 c62 185 112 345 113 355 0 13 9 17 43 18 81 2 138 6
392 24 39 3 122 7 185 10 63 3 144 7 180 10 196 14 241 18 238 21 -2 2 -47 6
-99 9 -51 4 -121 8 -154 10 -33 2 -118 7 -190 10 -71 3 -143 7 -160 10 -16 2
-84 7 -150 11 -66 4 -131 8 -145 9 -14 1 -48 3 -77 4 l-51 1 -116 349 c-64
191 -116 351 -116 354 0 15 58 37 86 33 17 -2 80 -28 140 -56z m2665 -982
c112 -378 132 -898 49 -1303 -221 -1080 -1065 -1924 -2145 -2145 -330 -68
-770 -68 -1100 0 -482 98 -918 318 -1295 655 -104 92 -293 295 -297 318 -2 10
1234 992 1284 1020 9 6 50 -7 117 -37 489 -219 1059 -267 1587 -136 429 108
834 337 1148 651 256 256 477 607 587 935 22 63 40 114 41 114 1 0 12 -33 24
-72z"/>
<path d="M5283 4923 c9 -2 23 -2 30 0 6 3 -1 5 -18 5 -16 0 -22 -2 -12 -5z"/>
</g>
</svg>
